<svg id="레이어_1" data-name="레이어 1" xmlns="http://www.w3.org/2000/svg" viewBox="0 0 80 80"><defs><style>.cls-1{fill:#1c2c58;}.cls-2{fill:none;}.cls-3{fill:#1c2c59;}</style></defs><path class="cls-1" d="M2,61.69H0V0H17.12c.11,0,11,1.48,11,11.12,0,7.76-6.82,10.26-10.43,10.5L2,21.72ZM2,2V19.72l15.63-.09c.28,0,8.5-.69,8.5-8.5,0-7.65-8.34-9-9.2-9.13Z"/><polygon class="cls-2" points="48.7 46.64 50.62 46.64 52.21 46.64 73.03 46.64 66.55 30.02 51.91 30.02 50.62 30.02 48.7 30.02 47.47 30.02 32.77 30.02 26.29 46.64 47.47 46.64 48.7 46.64"/><path class="cls-2" d="M64.43,74.38a3.88,3.88,0,1,0,7.75,0V71.17H64.43Z"/><path class="cls-2" d="M32.17,55.53a3.77,3.77,0,1,0,3.77,3.77A3.77,3.77,0,0,0,32.17,55.53Z"/><path class="cls-2" d="M27.13,74.38a3.88,3.88,0,1,0,7.76,0V71.17H27.13Z"/><path class="cls-2" d="M67.14,55.53a3.77,3.77,0,1,0,3.78,3.77A3.78,3.78,0,0,0,67.14,55.53Z"/><path class="cls-3" d="M32.17,53.79a5.51,5.51,0,1,0,5.51,5.51A5.52,5.52,0,0,0,32.17,53.79Zm0,9.28a3.77,3.77,0,1,1,3.77-3.77A3.77,3.77,0,0,1,32.17,63.07Z"/><path class="cls-3" d="M75,47l-7.3-18.75H31.58L24.27,47,19.32,52V71.17h6.07v3.21a5.62,5.62,0,0,0,11.24,0V71.17H62.69v3.21a5.62,5.62,0,1,0,11.23,0V71.17H80V52ZM32.77,30H66.55L73,46.64H26.29Zm2.12,44.37a3.88,3.88,0,1,1-7.76,0V71.17h7.76Zm37.29,0a3.88,3.88,0,1,1-7.75,0V71.17h7.75Zm6.08-4.95H21.06V52.7l4.32-4.32H73.94l4.32,4.32Z"/><path class="cls-3" d="M67.14,53.79a5.51,5.51,0,1,0,5.51,5.51A5.52,5.52,0,0,0,67.14,53.79Zm0,9.28a3.77,3.77,0,1,1,3.78-3.77A3.78,3.78,0,0,1,67.14,63.07Z"/></svg>