<?xml version="1.0" encoding="utf-8"?>
<!-- Generator: Adobe Illustrator 24.3.0, SVG Export Plug-In . SVG Version: 6.00 Build 0)  -->
<svg version="1.1" id="레이어_1" xmlns="http://www.w3.org/2000/svg" xmlns:xlink="http://www.w3.org/1999/xlink" x="0px"
	 y="0px" viewBox="0 0 128 128" style="enable-background:new 0 0 128 128;" xml:space="preserve">
<style type="text/css">
	.st0{fill:#1C2C59;}
</style>
<g>
	<path class="st0" d="M67.61,24.4c-1.95-1.95-5.12-1.95-7.07,0L29.46,55.47c-1.95,1.95-1.95,5.12,0,7.07C30.44,63.52,31.72,64,33,64
		s2.56-0.49,3.54-1.46L59.28,39.8v72.64c0,2.76,2.24,5,5,5s5-2.24,5-5V40.21l22.19,22.19c1.95,1.95,5.12,1.95,7.07,0
		c1.95-1.95,1.95-5.12,0-7.07L67.61,24.4z"/>
	<path class="st0" d="M33,20.57h62c2.76,0,5-2.24,5-5s-2.24-5-5-5H33c-2.76,0-5,2.24-5,5S30.24,20.57,33,20.57z"/>
</g>
</svg>
