<svg id="레이어_1" data-name="레이어 1" xmlns="http://www.w3.org/2000/svg" viewBox="0 0 80 80"><defs><style>.cls-1{fill:#1c2c58;}.cls-2{fill:#1c2c59;}</style></defs><path class="cls-1" d="M39.85,80a7.84,7.84,0,1,1,7.84-7.84A7.85,7.85,0,0,1,39.85,80Zm0-13.73a5.89,5.89,0,1,0,5.89,5.89A5.89,5.89,0,0,0,39.85,66.24Z"/><path class="cls-2" d="M40.38,54.68c-.25,0-.49,0-.75,0V52.42A24.11,24.11,0,0,0,22.57,60l1.1,1.86C26.56,58.69,31.79,54.9,40.38,54.68Z"/><path class="cls-2" d="M41.13,52.35c-.26,0-.49,0-.75,0,.26,0,.5,0,.75,0Z"/><path class="cls-2" d="M39.63,52.35v.07l.75,0C40.13,52.38,39.89,52.35,39.63,52.35Z"/><path class="cls-2" d="M41.13,54.65c-.26,0-.49,0-.75,0,7.95.2,13,3.46,16,6.48l1.09-1.85a24.23,24.23,0,0,0-16.38-6.89Z"/><path class="cls-2" d="M40.38,54.68c.26,0,.49,0,.75,0V52.42c-.25,0-.49,0-.75,0l-.75,0v2.23C39.89,54.65,40.13,54.67,40.38,54.68Z"/><path class="cls-2" d="M41.09,40.28c-.25,0-.47,0-.71,0,.24,0,.47,0,.71,0Z"/><path class="cls-2" d="M39.68,42.58V40.35c-11,.32-18.6,4.26-23.67,8.52l1.13,1.93c4.95-4.15,12.44-8,23.24-8.19C40.14,42.61,39.92,42.58,39.68,42.58Z"/><path class="cls-2" d="M39.68,40.28v.07c.24,0,.46,0,.7,0C40.14,40.31,39.92,40.28,39.68,40.28Z"/><path class="cls-2" d="M41.09,42.58c-.25,0-.47,0-.71,0,10.25.16,17.54,3.68,22.49,7.59L64,48.26c-5.06-4-12.49-7.6-22.92-7.91Z"/><path class="cls-2" d="M40.38,42.61c.24,0,.46,0,.71,0V40.35c-.24,0-.47,0-.71,0s-.46,0-.7,0v2.23C39.92,42.58,40.14,42.61,40.38,42.61Z"/><path class="cls-2" d="M39.82,30.1V27.83c-13.58.24-23.44,4.78-30.31,10l1.09,1.86c6.7-5,16.38-9.45,29.78-9.57Z"/><path class="cls-2" d="M40.38,27.82H41v0Z"/><path class="cls-2" d="M41,27.83V30.1h-.57c12.9.12,22.35,4.2,29,9l1.09-1.86C63.66,32.28,54,28.07,41,27.83Z"/><path class="cls-2" d="M39.82,27.8v0h.56Z"/><path class="cls-2" d="M39.82,27.83V30.1H41V27.83H39.82Z"/><path class="cls-2" d="M12.91,0H23.26V1.94H15.17V8H22V9.93H15.17V18H12.91Z"/><path class="cls-2" d="M31.94,10.38H28.71V18H26.45V0h5.62c3.65,0,6.27,1.3,6.27,5a4.89,4.89,0,0,1-4,5.07L38.86,18H36.31Zm-.22-1.82c2.82,0,4.37-1.15,4.37-3.5s-1.55-3.19-4.37-3.19h-3V8.56Z"/><path class="cls-2" d="M42,0H52.37V1.94H44.28V7.58H51.1V9.52H44.28v6.54h8.36V18H42Z"/><path class="cls-2" d="M56.47,0H66.82V1.94H58.73V7.58h6.81V9.52H58.73v6.54h8.36V18H56.47Z"/></svg>